<svg id="Layer_1" data-name="Layer 1" xmlns="http://www.w3.org/2000/svg" viewBox="0 0 50 50"><defs><style>.cls-1{fill:#fbba23;}</style></defs><title>50x50</title><g id="g3402"><g id="g3348"><g id="g3350"><path id="path3352" class="cls-1" d="M44.17,4.38a.6.6,0,0,0-.61-.6h0a.6.6,0,0,0-.6.62L43,8l-.7-.68A24.75,24.75,0,0,0,1.7,33.39a.62.62,0,0,0,.58.38.45.45,0,0,0,.2,0A.61.61,0,0,0,2.85,33,23.53,23.53,0,0,1,41.43,8.17l.7.68-3.57.05a.61.61,0,0,0,0,1.21h0l5.05-.06a.61.61,0,0,0,.43-.18.62.62,0,0,0,.17-.44Z"/></g></g><g id="g3354"><g id="g3356"><path id="path3358" class="cls-1" d="M48.3,16.61a.63.63,0,0,0-.79-.35.61.61,0,0,0-.36.78,23.54,23.54,0,0,1-38.6,24.8l-.7-.68,3.58,0a.61.61,0,1,0,0-1.21l-5,.05a.6.6,0,0,0-.6.62l.06,5.05a.6.6,0,0,0,.61.6h0A.6.6,0,0,0,7,45.6L7,42l.7.68a24.57,24.57,0,0,0,17.29,7h.29A24.76,24.76,0,0,0,49.23,30.06,24.84,24.84,0,0,0,48.3,16.61Z"/></g></g><g id="g3360"><g id="g3362"><path id="path3364" class="cls-1" d="M38.67,19.33a14.78,14.78,0,0,0-12.76-9.11,4.77,4.77,0,0,0-.54,0H25a14.81,14.81,0,0,0,0,29.63h.44l.38,0a14.88,14.88,0,0,0,4.84-1.1,14.79,14.79,0,0,0,8-19.35ZM19.79,12.44A13.14,13.14,0,0,1,21.13,12a11,11,0,0,0-2,2.56A17.46,17.46,0,0,0,17.37,19H12.82A13.65,13.65,0,0,1,19.79,12.44Zm-1.45,7.74h6.41v9.64H18.4A22.89,22.89,0,0,1,17.88,25,24.24,24.24,0,0,1,18.34,20.18Zm-6.07,9.65a13.67,13.67,0,0,1,0-9.66H17.1A25.53,25.53,0,0,0,16.65,25a24.16,24.16,0,0,0,.48,4.82H12.27Zm.55,1.2h4.62a17.84,17.84,0,0,0,1.68,4.22,11.28,11.28,0,0,0,2.19,2.83A13.53,13.53,0,0,1,12.82,31Zm11.94,7.51c-1.7-.26-3.31-1.62-4.59-3.89A17,17,0,0,1,18.71,31h6.05Zm0-19.58H18.64c1.11-4.2,3.39-7.14,6.12-7.51Zm12.41,0H33.36a17.46,17.46,0,0,0-1.74-4.43A11.17,11.17,0,0,0,30,12.36,13.54,13.54,0,0,1,37.17,19ZM26,11.46c2.73.38,5,3.31,6.12,7.51H26Zm0,8.73h6.41A24.17,24.17,0,0,1,32.85,25a22.89,22.89,0,0,1-.52,4.82H26Zm0,18.36V31H32a17,17,0,0,1-1.47,3.62C29.28,36.92,27.67,38.28,26,38.54Zm4.22-1-.37.15a11.89,11.89,0,0,0,1.8-2.46A17.84,17.84,0,0,0,33.31,31h3.88A13.57,13.57,0,0,1,30.2,37.56Zm7.5-7.74H33.58A24.23,24.23,0,0,0,34.05,25a25.45,25.45,0,0,0-.45-4.82h4.08A13.35,13.35,0,0,1,37.7,29.82Z"/></g></g></g></svg>